# Blender v2.80 (sub 75) OBJ File: 'arena.blend'
# www.blender.org
mtllib arena_ramp.mtl
o Cube_Cube.003
v -3.000000 -0.050000 10.000000
v -3.000000 0.050000 10.000000
v -3.000000 -0.050000 -10.000000
v -3.000000 0.050000 -10.000000
v 3.000000 -0.050000 10.000000
v 3.000000 0.050000 10.000000
v 3.000000 -0.050000 -10.000000
v 3.000000 0.050000 -10.000000
vt 8.250003 2.250000
vt -1.749996 2.250000
vt -1.749998 -0.750000
vt 8.250000 -0.750000
vt -1.750000 2.250000
vt -11.749999 2.250000
vt -11.750000 -0.749999
vt -1.750001 -0.750000
vt -11.750000 -3.749999
vt -1.750000 -3.750000
vt -1.749996 -0.750000
vt -1.749998 -3.749999
vt 8.250000 -3.750000
vt 8.250003 -0.750001
vt 18.250000 -0.750001
vt 8.250003 -0.750001
vt 8.250003 -3.749999
vt 18.250000 -3.750000
vt -1.750003 2.250000
vt -1.750001 5.250000
vt -11.749998 5.250000
vt -11.750000 2.250001
vn -1.0000 0.0000 0.0000
vn 0.0000 0.0000 -1.0000
vn 1.0000 0.0000 0.0000
vn 0.0000 0.0000 1.0000
vn 0.0000 -1.0000 0.0000
vn 0.0000 1.0000 0.0000
usemtl Material
s off
f 1/1/1 2/2/1 4/3/1 3/4/1
f 3/5/2 4/6/2 8/7/2 7/8/2
f 7/8/3 8/7/3 6/9/3 5/10/3
f 5/11/4 6/12/4 2/13/4 1/14/4
f 3/15/5 7/16/5 5/17/5 1/18/5
f 8/19/6 4/20/6 2/21/6 6/22/6
